<svg version="1.2" xmlns="http://www.w3.org/2000/svg" viewBox="0 0 24 24" width="24" height="24">
	<title>Task1Vector(edited)</title>
	<style>
		.s0 { fill: #757575 } 
	</style>
	<g id="Layer 1">
		<path class="s0" d="m15 22h-7.8-1.4c-0.7 0-1.5-0.2-2.1-0.6-0.6-0.4-1.1-1-1.4-1.7-0.3-0.7-0.4-1.4-0.2-2.1 0.1-0.8 0.4-1.4 0.9-2l1.2-1.2q0.4-0.4 0.6-1 0.2-0.6 0.2-1.1 0-0.6-0.3-1.2-0.2-0.5-0.6-1l-1.1-1.1q-0.2-0.2-0.2-0.5 0-0.3 0.2-0.5 0.2-0.2 0.5-0.2 0.3 0 0.5 0.2l1.1 1.1q0.7 0.6 1 1.4 0.4 0.8 0.4 1.7 0 0.9-0.3 1.7-0.3 0.9-0.9 1.5l-1.2 1.2q-0.4 0.5-0.6 1.2-0.1 0.7 0.2 1.3 0.3 0.6 0.8 1 0.6 0.4 1.3 0.4h0.7q0-0.4 0-1c0-1.1 0.1-2.6 0.5-4 0.3-1.5 0.9-3 1.9-4.2 0.9-1.1 2-1.8 3.6-2v-4.1q0-0.7 0.2-1.3 0.3-0.5 0.7-1c0.3-0.3 0.9-0.9 1.2-1.2 0.9-0.8 0.7-0.9 1.1-0.9 0.7 0 1.3 1.8 1.3 2.6v0.6l1.4 0.6c0.9 0 1.3 2.5 1.8 3.3l2.7 2.4c1.1 1.8-1.4 0-3.4 0.2v9.3q0 0.4-0.2 0.8-0.2 0.4-0.5 0.7-0.3 0.4-0.7 0.5-0.4 0.2-0.9 0.2h-0.7"/>
	</g>
</svg>